<svg xmlns="http://www.w3.org/2000/svg"><symbol id="brachiosaurus" viewBox="0 0 256 256"><path d="M58.6 167.3a33 33 0 0 0-7.7.9c0 .3.3.6.8 1l2 1.1 2.7 1 2.8.9 2.4.6 1.5.2h2.2l2.5-.4 2.4-.9a4.5 4.5 0 0 0 1.7-1.5 27.9 27.9 0 0 0-6.4-2.2 31.7 31.7 0 0 0-6.9-.7z"/><path d="M128 0a128 128 0 1 0 128 128A128 128 0 0 0 128 0zm83.5 70.6v.3a7.1 7.1 0 0 1-.1 1.4l-.3 2.1c-.1.7-.2 1.4-.4 2.1l-.2 1.4a9.9 9.9 0 0 0-.9 1.8l-.6 2-.6 2a16.1 16.1 0 0 1-.7 2 30.9 30.9 0 0 1-1.7 3.1 21.3 21.3 0 0 0-1.6 3.1l-20.1 27.9-.2.6-.3.3-.3.3-.4.5-1.7 2.3-2.1 2.9-2.2 3.3c-.7 1.1-1.4 2.2-2 3.3a24.5 24.5 0 0 0-1.4 3 6.9 6.9 0 0 0-.5 2.3c0 .3-.2.5-.2.7s.2.4.2.7c-.2 0-.3.1-.3.4s.1.4.3.4V151a2.7 2.7 0 0 1-.2 1c-.2.4-.2.8-.4 1.2s-.5.8-.6 1.2-.4.8-.4 1.1v1.7a.4.4 0 0 1 0 .4l-.4.8-.7.8c-.2.3-.5.4-.5.4v.4c0 .1.7.2.8.4s.9.3.9.4v2.8a23.4 23.4 0 0 1-.6 3.5c-.2 1.2-.6 2.4-.8 3.5s-.5 2.4-.7 3.5a22.9 22.9 0 0 0-.3 3.5 61.8 61.8 0 0 0 .3 6.3 42.1 42.1 0 0 0 1.1 6.2 32.2 32.2 0 0 0 2.1 5.8 23.6 23.6 0 0 0 3.4 5.3l-1.3.8-1.7.7-1.7.5h-1.9l-1-.3-1.2-.3-1-.2-.8-.2-.8-.3-.6-.5a1.4 1.4 0 0 1-.3-.7 30 30 0 0 0 .1-4.1c-.1-1.4-.2-2.9-.3-4.3s-.3-2.9-.5-4.3-.4-2.8-.5-4.1l-.2-.6a1.5 1.5 0 0 0-.3-.6c.1-1.1.1-2.3.1-3.7s0-2.7-.1-4.1a26.3 26.3 0 0 0-.6-4 11.6 11.6 0 0 0-1.4-3.4 3.4 3.4 0 0 0-1.5 1.8 22.2 22.2 0 0 0-.8 2.7c-.2 1-.2 1.9-.4 2.9s-.9 1.8-.9 2.4v7.6c0 2.9-.2 5.6-.1 8.3s.2 5.5.6 8.3l.4.3.8.6.8.7a.9.9 0 0 1 .3.6c0 .2-.3.5-.8.8l-1.9.9-2 .8-1.3.4h-.4l-4.8-2.6a.5.5 0 0 1-.2-.5v-.6a22.5 22.5 0 0 1 0-3 21.8 21.8 0 0 0 .1-3 26.4 26.4 0 0 0-.3-3.8c-.2-1.3-.4-2.5-.6-3.7s-.4-2.5-.6-3.8a30 30 0 0 1-.3-3.9c0-1.2 0-2.4.1-3.3s.2-1.9.3-2.8l.5-2.8.7-3.2a1.4 1.4 0 0 0-.1-.7 4.1 4.1 0 0 1-.1-.7l-1.9.2-1.9.5-1.9.6-1.9.5-1.4.2h-2.1l-1.1-.2H134c-1.8 0-3.6.1-5.3 0s-3.5-.2-5.3-.2h-2.5a4.1 4.1 0 0 0-2.4.9c.1 1.8.1 3.5 0 5.2s-.1 3.4-.2 5.1l-.3 5.1c-.1 1.7-.2 3.5-.2 5.2v5.1c0 .6.7 1.1 1.1 1.7l1.4 1.7 1.2 1.8a3.5 3.5 0 0 1 .5 1.8v.4a9.2 9.2 0 0 1-4.1.4c.1.5 0 .7-.2.8H115l-2.3-.2a4.3 4.3 0 0 1-1.8-.9 2.2 2.2 0 0 1-.8-1.9 7 7 0 0 1 .1-1.3l.3-1.3c.1-.4.2-.9.3-1.3a6.4 6.4 0 0 0 .1-1.4 26.2 26.2 0 0 0-.3-3.9c-.2-1.2-.4-2.4-.7-3.6s-.5-2.7-.8-3.8a27.3 27.3 0 0 1-.7-4h-.4c-.2 0-.4.8-.5.9l-.4.7-.3.5-1.6 2.3-1.5 2.3a16.8 16.8 0 0 0-1.1 2.4 8.5 8.5 0 0 0-.4 2.7 4.4 4.4 0 0 0 .3 1.6l.7 1.5.7 1.2.3.6a.9.9 0 0 1-.4.7l-1 .5-1.3.3h-4a2.1 2.1 0 0 1-1.8-1.3 9.5 9.5 0 0 1-.6-1.6l-.5-1.6a5.1 5.1 0 0 1-.3-1.7 3.4 3.4 0 0 1 .4-1.5l1-1.6 1.1-1.6a7.3 7.3 0 0 0 .8-1.5l2.5-5.9 2.5-5.9.5-.8.5-.7.4-.8a1.8 1.8 0 0 0 .2-.8c0-.4-.1-.6-.3-.6h-1.3l-9 2.5a2.8 2.8 0 0 1-1.3.5l-1.8.4-1.6.6a1.1 1.1 0 0 0-.7 1.1 1.5 1.5 0 0 0 .3.9l.7.7.8.6.8.6-.4.4-1.3-.9-1.4-.8-1.5-.6-1.5-.2a14.7 14.7 0 0 0-3.8.5l-4 1.1-4.1 1.2a17.3 17.3 0 0 1-4.2.5l-3.5-.4-4.9-1.1-5.8-1.3a38.1 38.1 0 0 1-5-2.3 15.9 15.9 0 0 1-3.7-2.7 4.2 4.2 0 0 1-1.5-3 4.5 4.5 0 0 1 1.1-3.3 6.4 6.4 0 0 1 2.8-1.7 14.2 14.2 0 0 1 3.5-.2c1.2-.1 2.4.3 3.4.3h4a2.6 2.6 0 0 1 1.3-.3l2.4.2 2.6.3 2 .3 2 .5 1.8.9 1.8.8a6.2 6.2 0 0 0 2 .3 8.8 8.8 0 0 0 4-1.1 30.8 30.8 0 0 0 4.2-2.6l3.9-3.1 3.3-2.7 1.9-1.3 1.9-1.1 1.7-1.3a8 8 0 0 0 1.5-1.7 37.9 37.9 0 0 0 2.6-4.5 31.5 31.5 0 0 1 2.7-4.5 7 7 0 0 1 1.3-1.3l1.6-1 1.6-.9 1.6-.9 3.6-2.7 3.5-2.9 3.4-3 3.5-2.9a21.6 21.6 0 0 1 3.8-2.2l4-1.9 2.5-1.3 2.5-1.3 2.6-1.2a12.6 12.6 0 0 1 2.7-.8l22.6-3.3a10.9 10.9 0 0 0 3.5-1.1 20.3 20.3 0 0 0 3.4-2.2 32.3 32.3 0 0 0 3.2-2.9l2.9-3.3 2.7-3.2 2.3-2.8 7.8-9 .3-.3.5-.6.5-.5.3-.3 2.1-3.3.3-.2.4-.2.4-.2.2-.2.4-.4.4-.4 1.3-1.7 1.4-2 1.3-2 1-1.7a12.9 12.9 0 0 0 .9-2l.7-2.1c.2-.7.5-1.5.8-2.2s1-1.5 1-2.2v-6a5.2 5.2 0 0 0-1.1-3.1 11.7 11.7 0 0 0-2.7-2.6A13.2 13.2 0 0 0 196 56a9.3 9.3 0 0 0-3.2-.7 24.9 24.9 0 0 0-5.9.7 12.3 12.3 0 0 0-5.2 2.7l-1.5 1.4-1.5 1.9-1.8 2-1.9 1.8-1.8 1.3a3.5 3.5 0 0 1-1.8.5 1.7 1.7 0 0 1-1.7-1.6v-.9l.2-.8v-1.2a5.2 5.2 0 0 0-.2-1.7l-.6-1.4-.6-1.2a3.1 3.1 0 0 1-.2-1.3 1.1 1.1 0 0 0 .9-.3l.5-.6.4-.8a1.7 1.7 0 0 1 .8-.6h2.9a1.1 1.1 0 0 0 1-.4l.7-.7h.4l.3.4.2.4a.5.5 0 0 1 .4-.4l.6-.4 1.1-.7 1.4-.8 1.4-.8 1.1-.7.6-.4 2.1-1.3 1.8-.6 1.9-.2h6.5l1.5.5 1.5.3 1.6.3 1.6.5a15.2 15.2 0 0 1 4.6 3 17.3 17.3 0 0 1 3.2 4.2 19.6 19.6 0 0 1 1.7 5.1 24.2 24.2 0 0 1 .5 5.5v2.6z"/></symbol><symbol id="velociraptor" viewBox="0 0 256 256"><path d="M128 0a128 128 0 1 0 128 128A128 128 0 0 0 128 0zm110.7 116.8h-7.4c-3.1 0-6.1-.2-9.2-.5l-9.2-1-9.1-1c-3.1-.3-6.1-.5-9.2-.5a136 136 0 0 0-16.4 1 74.2 74.2 0 0 0-15.9 3.7l-30.7 11.1a2.5 2.5 0 0 0-1.2 1.6 20.5 20.5 0 0 0-.8 2.8l-.6 2.9a7 7 0 0 1-.6 2 3.2 3.2 0 0 0 1.4 1.3l2.5 1.2 2.9 1.2a18.3 18.3 0 0 1 2.8 1.5 8.6 8.6 0 0 1 2.1 1.9 3.9 3.9 0 0 1 .8 2.5 1.6 1.6 0 0 1-.5 1.2 5 5 0 0 1-1.2.9l-1.6.7-1.6.8a4.8 4.8 0 0 0-1.2 1.1 2.4 2.4 0 0 0-.5 1.5 3.7 3.7 0 0 0 .8 2.6 7.9 7.9 0 0 0 1.9 1.6l2.4 1.3a7.5 7.5 0 0 1 2.2 1.7 17.5 17.5 0 0 1 2 3.5 23.8 23.8 0 0 1 1.3 3.7 35.3 35.3 0 0 1 .8 3.9c.2 1.3.1 2.7.3 4l1.3 1.3v7.2h.9l1 .2 1 .2.6.2c.1.5.1.7.1.9a6.8 6.8 0 0 1-.1 1 7.1 7.1 0 0 1-.4 1.3 3.2 3.2 0 0 1-.6.9 1 1 0 0 1-.9.3h-5.2c-.2 0-.5-.5-1-.8l-1.5-.9-1.6-.8c-.5-.3-.9-.9-1.2-.9h-6.2a4.7 4.7 0 0 1 .7-3 4.3 4.3 0 0 1 1.7-1.6 7.1 7.1 0 0 1 2.1-.7l2.1-.4a5.1 5.1 0 0 0 1.6-.6 1.5 1.5 0 0 0 .7-1.4 2.8 2.8 0 0 0 0-.3v-.3l-.9-1.8-1.3-2.4a26.9 26.9 0 0 0-1.5-2.5 9.5 9.5 0 0 0-1.6-1.8l-1.3-.8-1.9-1-1.8-1.1a2.2 2.2 0 0 1-1-1.1 23.1 23.1 0 0 1-.9-3 21.7 21.7 0 0 0-1.1-3.2 8 8 0 0 0-1.7-2.6 4 4 0 0 0-2.9-1.1 23.6 23.6 0 0 0-6.1.8 26.8 26.8 0 0 0-5.8 2.3 26.2 26.2 0 0 0-5 3.5 22.6 22.6 0 0 0-4 4.6l-.4.2h-.2v-.2l-.2-.3-.2-.6-.2-.6-.2-.3h-.3a1.4 1.4 0 0 0-1.1.5 6.7 6.7 0 0 0-.9 1.2l-.8 1.3a3.7 3.7 0 0 1-.9 1 4.4 4.4 0 0 1-.7-1.7 15.1 15.1 0 0 1-.1-1.7 10.5 10.5 0 0 1 .4-2.9l.9-2.8c.4-1 .7-1.6.9-2.6a19.8 19.8 0 0 0 .4-2.8h-5c0-1.7.2-1.8.7-2.4a5.9 5.9 0 0 1 1.6-1.6 7.2 7.2 0 0 1 2.1-.9l2.1-.3 3 .2 3 .5 2.9.5 2.9.2h2.3a2.6 2.6 0 0 0-1.7-1.4l-2.6-.5-2.7-.2c-.9-.1-1.6.2-2.2-.2l-3.9-2.2h-.3a13.6 13.6 0 0 0-3.2 0 13.3 13.3 0 0 1-3.2.2 7.4 7.4 0 0 1-3-.7L89 145l-2.6-1.4a5.2 5.2 0 0 0-2.9-.6v6.1l1.6-.2 1-.3.9-.5c.3-.2.4-.4.9-.7l.6-.2v2.8l2-.7c0 .1.2.3.2.5s.1.4.1.5a5.6 5.6 0 0 1-1.3 3.9 21.9 21.9 0 0 1-3.3 2.9 22.9 22.9 0 0 0-4.6-1.3l-4.8-.7v-7.8l-1.8.7-2 1a12.8 12.8 0 0 0-1.9 1.2c-.5.4-.9.8-.9 1.2v6.9a10.4 10.4 0 0 0 3-.3l1.8-.6 1.2-.6a2.7 2.7 0 0 1 1.2-.3h.4l.3.7.5 1.3.4 1.3a4.2 4.2 0 0 1 .2 1 5.1 5.1 0 0 1-.4 1.9 7.2 7.2 0 0 1-1.1 1.8 5.8 5.8 0 0 1-1.6 1.4 3.4 3.4 0 0 1-1.8.6h-1l-3-.5-3.7-.7a12.1 12.1 0 0 1-3.3-1.3 2.5 2.5 0 0 1-1.5-2.1V150c0-.1.4-.4.9-.8l1.9-1.6 2.4-2.2a26.3 26.3 0 0 0 2.4-2.6 20.6 20.6 0 0 0 1.8-2.7 5.5 5.5 0 0 0 .7-2.6 3.9 3.9 0 0 0-1.2-2.8 11.8 11.8 0 0 0-2.8-2l-3.3-1.4-2.6-.9-1.3-9.2c-.2-.8-.4-1.7-.6-2.7a11.9 11.9 0 0 0-1.1-2.8 7.3 7.3 0 0 0-1.8-2.2 4.1 4.1 0 0 0-2.7-.9 12.5 12.5 0 0 0-3.7.5 15 15 0 0 0-3.2 1.5l-1.7 1-2.6 1.5-3 1.8-3 1.8-2.6 1.7c-.8.4-1.3 1.1-1.7 1.1h-1l-1.7-.2-2.1-.4a3.5 3.5 0 0 1-1.4-.8c-.5-.3-.4-.8-.4-1.4v-1.9c0-.6-.2-.9.1-.9h1.6a1.1 1.1 0 0 1 0-.4l.2-.8.2-.9a.9.9 0 0 0 0-.5 2.4 2.4 0 0 0-.8-.8l-.7-.5-.7-.7a2 2 0 0 1-.3-1.3 3.2 3.2 0 0 1 .2-1.2 4.9 4.9 0 0 1 .7-1.2c.3-.4.3-.7.6-.9l.8-.3v.8c0 .5.4 1 .6 1.5a1.2 1.2 0 0 0 1.2.7 1.6 1.6 0 0 0 1.1-.5 5.3 5.3 0 0 0 1-1.1 10.5 10.5 0 0 0 .6-1.6c.2-.5.3.3.3-1.4H20.8a1.9 1.9 0 0 1-.9-.5l-1.1-.7-.9-.8a1.5 1.5 0 0 1-.4-1 4.5 4.5 0 0 1 1.1-3.2 7.5 7.5 0 0 1 2.6-1.8 17.1 17.1 0 0 1 3.2-1l2.9-.8 2.2-.9 3.5-1.6 3.4-1.6a10.1 10.1 0 0 1 2.2-1.1h13.6a7.5 7.5 0 0 1 3.9 1 13.5 13.5 0 0 1 3.1 2.5 26.7 26.7 0 0 1 2.6 3.3l2.3 3.3a16.9 16.9 0 0 0 2.3 2.6 3.7 3.7 0 0 0 2.5 1 .8.8 0 0 0 .8-.4.9.9 0 0 1 .9-.4 3.9 3.9 0 0 1 1.5.3l1.5.7 1.5.7a3.9 3.9 0 0 0 1.6.3l4.1-.2 4.1-.5 4.1-.5 4.1-.2a65 65 0 0 1 7.3.4 39.1 39.1 0 0 1 7.3 1.6l5.1 2 5.1 2.2a46.4 46.4 0 0 0 5.3 1.8 21.5 21.5 0 0 0 5.5.7h2.6l13-2.7c4.3-.9 8.6-1.7 12.9-2.3s8.6-1.2 13-1.6 8.8-.6 13.2-.6h8.9a41.1 41.1 0 0 1 5.1.9L234 115h11.8c-.8 0-1.9 1-3.2 1.4a18.4 18.4 0 0 1-3.9.4z"/></symbol><symbol id="micropachycephalosaurus" viewBox="0 0 256 256"><path d="M132.6 151.3c-.3 0-.4.2-.4.6h-.1a.4.4 0 0 0-.5.5c0 .4.2.6.5.6s.4-.2.4-.6h.1c.4 0 .5-.2.5-.5s-.2-.6-.5-.6zm1.4-.8a2.4 2.4 0 0 0-.9.8h.3a2.2 2.2 0 0 0 1.1-.3 2.3 2.3 0 0 0 .9-.8h-.3a2.1 2.1 0 0 0-1.1.3zm3.1-2.6c-.3 0-.4.2-.4.6h-.1c-.3 0-.4.2-.4.6h-.2c-.3 0-.5.2-.5.6s.2.6.5.6.5-.2.5-.6h.1c.3 0 .5-.2.5-.6h.1c.4 0 .5-.2.5-.6s-.2-.6-.6-.6zm23.4-5.9a14.2 14.2 0 0 1-1.3 1.4 1.8 1.8 0 0 0 .8 1.1l1.2.2a2.2 2.2 0 0 0 1.4-.5 4.8 4.8 0 0 0 1.1-1.2 10.3 10.3 0 0 0 .8-1.5c.2-.5.4-1.2.5-1.2h-3.4c-.3-.1-.6 1-1.1 1.7z"/><path d="M128 0a128 128 0 1 0 128 128A128 128 0 0 0 128 0zm96 75.9l-1.6.4h-3.7a42.8 42.8 0 0 0-5.2 1.3 16.1 16.1 0 0 0-3.7 1.6 9.4 9.4 0 0 0-2.5 2.2 14 14 0 0 0-1.8 3 36.1 36.1 0 0 0-1.5 3.9l-1.7 5.1-1.2 3.6c-.4 1.1-.8 2.2-1.3 3.2s-.9 2.1-1.5 3.2l-1.8 3.3a33.5 33.5 0 0 1-2.7 4.1l-3 3.7-3.1 3.6c-1.1 1.2-2.1 2.5-3.1 3.9a10.6 10.6 0 0 0-1.4 2.7c-.3.9-.6 1.8-1 2.6a8.4 8.4 0 0 1-1.4 2.2 5.6 5.6 0 0 1-2.5 1.6l-1.4.6-2 .7-2.1.6-1.4.4a2.9 2.9 0 0 1 .2 2 2 2 0 0 1-.9.9l-1.2.6a1.7 1.7 0 0 0-.9 1l-2.3 6.8a2.7 2.7 0 0 1-1.1 1.5 5.9 5.9 0 0 1-1.8.9 11.4 11.4 0 0 1-2 .2 14.9 14.9 0 0 1-1.9-.1h-.5c-.5 0-.9.2-1.1.1s-.4-.3-.4-.9a.6.6 0 0 1 .1-.4l.2-.3.2-.3a.7.7 0 0 0 .1-.4.5.5 0 0 1 0-.2 23.4 23.4 0 0 0-3.5 1.7l-3.4 2.1-3.4 2.2-3.4 2-.9.5-1.2.6-1 .8a1.5 1.5 0 0 0-.4 1.1v.3a1.6 1.6 0 0 1 0 .2l1.8 1.6 2 1.7 2.1 1.6 2.1 1.3 1.8.7 2 .5 1.9.7a7.5 7.5 0 0 1 1.7.9 8.3 8.3 0 0 1 1.4 1.4l1.1 1.5 1.1 1.5a6.2 6.2 0 0 0 1.5 1.3l1.7.6 2.1.7a6.3 6.3 0 0 1 1.8 1 2.1 2.1 0 0 1 .8 1.7v.5l-5.7 1.2-1.1.4a2.4 2.4 0 0 1-1.2.3h-.6l-1.1-.6-1.8-1-1.7-1-1.1-.8-.2-.2-.3-.5-.4-.6-.3-.5-2.3-4.5-1.2-.5-1.8-.8-2.2-.9-2.2-1-1.8-.8-1.1-.6-2.8-1.6a16.3 16.3 0 0 1-2.6-2.2 13.3 13.3 0 0 1-2-2.7 8.2 8.2 0 0 1-1.1-3.2l-.6.2-.6.3-.9.7-1.7 1.2-2.1 1.4-2.1 1.4-1.8 1.1-1 .5-6 3.6a23.4 23.4 0 0 0-4.6 3.4 17.4 17.4 0 0 0-3.6 4.5c-.9 1.7-.7 3.9-2.4 6.7v.2a3.4 3.4 0 0 1 0 .4v.9a10 10 0 0 0 1.2 4.5 7.9 7.9 0 0 0 2.1 2.6 8.5 8.5 0 0 0 2.9 1l2.6 1a5.8 5.8 0 0 1 2 1 5.1 5.1 0 0 1 .8 2H102l-.2-.4c-.1-.2-.2-.1-.4-.2l-.5-.2-.6-.3a3 3 0 0 1-1.3-1.5 8.8 8.8 0 0 1-.5-2.2 15.9 15.9 0 0 1 .2-2.3c0-.8.3-1.5.3-2.1v-1.5a7 7 0 0 1 .3-1.8c.2-.8.3-1.7.6-2.7s.5-2.1.8-3.2l.8-3.2.7-2.7.4-1.8a15.4 15.4 0 0 1 .7-2 13.3 13.3 0 0 1 1-1.9 14.5 14.5 0 0 0 4.5-2.6 27.8 27.8 0 0 0 3.3-3.3l2.9-3.5a15.5 15.5 0 0 1 3.5-3.1l1.5-.7 2.1-.8 2.3-1 2.2-1.1a8.1 8.1 0 0 0 1.6-1.3 2.4 2.4 0 0 0 .6-1.6v-1.3a1.9 1.9 0 0 0-.6-1.2l-.8-.3-1.2-.5-1.2-.6-.8-.3a10.3 10.3 0 0 1-2.1-1.2l-2.7-1.9c-.9-.7-1.8-1.1-2.6-1.6a3.2 3.2 0 0 0-1.8-.6h-7.9c-6 0-12-.1-17.8.1s-11.8.2-17.8.2c-4.4 0-8.7-.2-13-.4A109.6 109.6 0 0 1 46 132a86.4 86.4 0 0 1-12.1-3 70 70 0 0 1-11.9-5.1l-1.4-.7-1.6-1a6 6 0 0 1-1.3-1.3 2.6 2.6 0 0 1-.5-1.6 7 7 0 0 1 2.1.4l2.4.9 2.2 1 1.5.6 4.7 1.7 5.1 1.5 5.2 1a33.9 33.9 0 0 0 4.9.4h26.8l2.6-.4 3.4-.5 3.7-.6 3.5-.6 2.7-.6 6.9-1.4 7.4-1.6c2.5-.6 4.9-1.3 7.3-2.1a48.1 48.1 0 0 0 6.7-2.8l3.9-1.8 3.8-1.6 4-1.3a32.2 32.2 0 0 1 4.2-.9h2.8l1.8-.2 1.1-.2 1.9-.3 3.4-.7 4.1-.9 4.1-.9c1.3-.3 2.4-.9 3.3-1.1s1.6-.7 1.9-.7h6.4c2.7 0 5.4.5 8 .7s5.2.5 7.9.5a10.1 10.1 0 0 0 5.1-1.3 18.6 18.6 0 0 0 4.5-3.5 33.1 33.1 0 0 0 3.9-5 65 65 0 0 0 3.3-5.7c1-1.9 1.9-3.8 2.6-5.6s1.3-3.4 1.8-4.8.8-2.4 1.1-3.5l1-3.2a16 16 0 0 1 1.2-2.6 7.3 7.3 0 0 1 1.8-2 8 8 0 0 1 2.6-1.6 12.5 12.5 0 0 1 3.8-.8h3.1c.8 1.7 1.8.9 3 1.3a37.7 37.7 0 0 1 3.6 1.5 15.3 15.3 0 0 1 3 1.8 2.8 2.8 0 0 1 1.3 2.2 2.1 2.1 0 0 1-.5 1.4 3.1 3.1 0 0 1-1.1.5z"/></symbol></svg>
